<?xml version="1.0" encoding="UTF-8" standalone="no"?>
<!DOCTYPE svg PUBLIC "-//W3C//DTD SVG 1.1//EN" "http://www.w3.org/Graphics/SVG/1.1/DTD/svg11.dtd">
<svg width="100%" height="100%" viewBox="0 0 338 70" version="1.1" xmlns="http://www.w3.org/2000/svg" xmlns:xlink="http://www.w3.org/1999/xlink" xml:space="preserve" xmlns:serif="http://www.serif.com/" style="fill-rule:evenodd;clip-rule:evenodd;stroke-linejoin:round;stroke-miterlimit:2;">
    <g transform="matrix(1,0,0,1,-67.1223,-90.8332)">
        <g transform="matrix(1,0,0,1,2.65871,-132.375)">
            <g transform="matrix(50,0,0,50,155.127,258.258)">
                <path d="M0.539,-0.522C0.539,-0.507 0.535,-0.493 0.527,-0.482C0.519,-0.47 0.51,-0.461 0.499,-0.454C0.482,-0.465 0.463,-0.475 0.443,-0.484C0.422,-0.493 0.398,-0.497 0.37,-0.497C0.317,-0.497 0.275,-0.48 0.245,-0.447C0.215,-0.413 0.2,-0.365 0.2,-0.303C0.2,-0.239 0.216,-0.191 0.248,-0.159C0.279,-0.126 0.323,-0.11 0.378,-0.11C0.407,-0.11 0.431,-0.114 0.452,-0.122C0.472,-0.129 0.491,-0.138 0.508,-0.149C0.518,-0.141 0.526,-0.131 0.533,-0.118C0.539,-0.106 0.542,-0.092 0.542,-0.077C0.542,-0.064 0.539,-0.051 0.532,-0.04C0.525,-0.028 0.512,-0.018 0.495,-0.01C0.482,-0.003 0.464,0.003 0.441,0.008C0.418,0.014 0.39,0.017 0.357,0.017C0.312,0.017 0.271,0.011 0.232,-0.002C0.193,-0.015 0.16,-0.034 0.131,-0.06C0.102,-0.086 0.08,-0.119 0.064,-0.16C0.047,-0.2 0.039,-0.248 0.039,-0.303C0.039,-0.355 0.047,-0.401 0.064,-0.441C0.08,-0.481 0.102,-0.515 0.13,-0.542C0.158,-0.569 0.191,-0.589 0.228,-0.603C0.265,-0.617 0.305,-0.624 0.348,-0.624C0.409,-0.624 0.456,-0.614 0.489,-0.595C0.522,-0.576 0.539,-0.551 0.539,-0.522Z" style="fill-rule:nonzero;"/>
            </g>
            <g transform="matrix(50,0,0,50,183.827,258.258)">
                <path d="M0.211,-0.001C0.204,0.001 0.195,0.003 0.183,0.004C0.171,0.006 0.158,0.007 0.143,0.007C0.113,0.007 0.091,0.002 0.078,-0.008C0.065,-0.017 0.058,-0.036 0.058,-0.064L0.058,-0.651C0.065,-0.653 0.075,-0.655 0.087,-0.657C0.099,-0.659 0.112,-0.66 0.127,-0.66C0.157,-0.66 0.179,-0.655 0.192,-0.645C0.204,-0.635 0.211,-0.616 0.211,-0.588L0.211,-0.473C0.225,-0.48 0.241,-0.485 0.259,-0.49C0.276,-0.494 0.295,-0.496 0.316,-0.496C0.38,-0.496 0.43,-0.48 0.467,-0.448C0.503,-0.415 0.521,-0.367 0.521,-0.302L0.521,-0.001C0.514,0.001 0.505,0.003 0.493,0.004C0.481,0.006 0.468,0.007 0.453,0.007C0.423,0.007 0.401,0.002 0.388,-0.008C0.375,-0.017 0.368,-0.036 0.368,-0.064L0.368,-0.293C0.368,-0.323 0.361,-0.344 0.345,-0.357C0.331,-0.37 0.311,-0.376 0.288,-0.376C0.273,-0.376 0.259,-0.374 0.246,-0.37C0.233,-0.365 0.222,-0.36 0.211,-0.354L0.211,-0.001Z" style="fill-rule:nonzero;"/>
            </g>
            <g transform="matrix(50,0,0,50,212.777,258.258)">
                <path d="M0.209,-0.001C0.202,0.001 0.193,0.003 0.181,0.004C0.169,0.006 0.156,0.007 0.141,0.007C0.111,0.007 0.089,0.002 0.076,-0.008C0.063,-0.017 0.056,-0.036 0.056,-0.064L0.056,-0.369C0.056,-0.388 0.061,-0.404 0.07,-0.417C0.079,-0.43 0.092,-0.442 0.109,-0.452C0.131,-0.465 0.158,-0.476 0.189,-0.484C0.22,-0.491 0.252,-0.495 0.286,-0.495C0.355,-0.495 0.39,-0.472 0.39,-0.425C0.39,-0.414 0.388,-0.403 0.385,-0.394C0.382,-0.385 0.378,-0.377 0.374,-0.37C0.359,-0.373 0.34,-0.375 0.318,-0.375C0.299,-0.375 0.279,-0.373 0.26,-0.368C0.241,-0.363 0.224,-0.357 0.209,-0.349L0.209,-0.001Z" style="fill-rule:nonzero;"/>
            </g>
            <g transform="matrix(50,0,0,50,232.177,258.258)">
                <path d="M0.545,-0.241C0.545,-0.202 0.539,-0.166 0.527,-0.135C0.515,-0.103 0.498,-0.076 0.475,-0.054C0.453,-0.032 0.426,-0.015 0.395,-0.003C0.364,0.009 0.329,0.015 0.29,0.015C0.251,0.015 0.216,0.009 0.185,-0.003C0.153,-0.014 0.126,-0.031 0.103,-0.053C0.081,-0.075 0.064,-0.102 0.052,-0.134C0.04,-0.165 0.034,-0.201 0.034,-0.241C0.034,-0.28 0.04,-0.315 0.053,-0.346C0.065,-0.378 0.082,-0.405 0.105,-0.427C0.127,-0.449 0.154,-0.466 0.186,-0.478C0.217,-0.49 0.252,-0.496 0.29,-0.496C0.328,-0.496 0.363,-0.49 0.394,-0.478C0.425,-0.466 0.452,-0.449 0.474,-0.427C0.497,-0.404 0.514,-0.377 0.527,-0.346C0.539,-0.315 0.545,-0.28 0.545,-0.241ZM0.29,-0.376C0.259,-0.376 0.234,-0.364 0.217,-0.341C0.2,-0.318 0.191,-0.284 0.191,-0.241C0.191,-0.196 0.2,-0.163 0.217,-0.14C0.234,-0.117 0.258,-0.105 0.29,-0.105C0.322,-0.105 0.346,-0.117 0.364,-0.14C0.381,-0.163 0.389,-0.197 0.389,-0.241C0.389,-0.284 0.38,-0.317 0.363,-0.341C0.346,-0.364 0.321,-0.376 0.29,-0.376Z" style="fill-rule:nonzero;"/>
            </g>
            <g transform="matrix(50,0,0,50,261.177,258.258)">
                <path d="M0.367,-0.307C0.367,-0.33 0.36,-0.348 0.346,-0.359C0.332,-0.37 0.313,-0.376 0.29,-0.376C0.274,-0.376 0.259,-0.374 0.246,-0.37C0.233,-0.366 0.22,-0.361 0.209,-0.355L0.209,-0.001C0.202,0.001 0.193,0.003 0.181,0.004C0.169,0.006 0.156,0.007 0.141,0.007C0.111,0.007 0.089,0.002 0.076,-0.008C0.063,-0.017 0.056,-0.036 0.056,-0.064L0.056,-0.373C0.056,-0.39 0.06,-0.404 0.067,-0.415C0.074,-0.426 0.085,-0.436 0.098,-0.445C0.119,-0.46 0.147,-0.473 0.181,-0.482C0.214,-0.491 0.251,-0.496 0.292,-0.496C0.365,-0.496 0.421,-0.48 0.461,-0.448C0.5,-0.416 0.52,-0.37 0.52,-0.311L0.52,-0.001C0.513,0.001 0.503,0.003 0.491,0.004C0.479,0.006 0.466,0.007 0.451,0.007C0.421,0.007 0.4,0.002 0.387,-0.008C0.374,-0.017 0.367,-0.036 0.367,-0.064L0.367,-0.307Z" style="fill-rule:nonzero;"/>
            </g>
            <g transform="matrix(50,0,0,50,290.027,258.258)">
                <path d="M0.545,-0.241C0.545,-0.202 0.539,-0.166 0.527,-0.135C0.515,-0.103 0.498,-0.076 0.475,-0.054C0.453,-0.032 0.426,-0.015 0.395,-0.003C0.364,0.009 0.329,0.015 0.29,0.015C0.251,0.015 0.216,0.009 0.185,-0.003C0.153,-0.014 0.126,-0.031 0.103,-0.053C0.081,-0.075 0.064,-0.102 0.052,-0.134C0.04,-0.165 0.034,-0.201 0.034,-0.241C0.034,-0.28 0.04,-0.315 0.053,-0.346C0.065,-0.378 0.082,-0.405 0.105,-0.427C0.127,-0.449 0.154,-0.466 0.186,-0.478C0.217,-0.49 0.252,-0.496 0.29,-0.496C0.328,-0.496 0.363,-0.49 0.394,-0.478C0.425,-0.466 0.452,-0.449 0.474,-0.427C0.497,-0.404 0.514,-0.377 0.527,-0.346C0.539,-0.315 0.545,-0.28 0.545,-0.241ZM0.29,-0.376C0.259,-0.376 0.234,-0.364 0.217,-0.341C0.2,-0.318 0.191,-0.284 0.191,-0.241C0.191,-0.196 0.2,-0.163 0.217,-0.14C0.234,-0.117 0.258,-0.105 0.29,-0.105C0.322,-0.105 0.346,-0.117 0.364,-0.14C0.381,-0.163 0.389,-0.197 0.389,-0.241C0.389,-0.284 0.38,-0.317 0.363,-0.341C0.346,-0.364 0.321,-0.376 0.29,-0.376Z" style="fill-rule:nonzero;"/>
            </g>
            <g transform="matrix(50,0,0,50,319.027,258.258)">
                <path d="M0.45,-0.141C0.45,-0.092 0.432,-0.053 0.395,-0.025C0.358,0.002 0.304,0.016 0.233,0.016C0.205,0.016 0.18,0.014 0.157,0.01C0.134,0.006 0.114,-0 0.097,-0.008C0.08,-0.016 0.067,-0.026 0.058,-0.038C0.049,-0.05 0.044,-0.064 0.044,-0.08C0.044,-0.095 0.047,-0.107 0.053,-0.117C0.059,-0.128 0.067,-0.136 0.076,-0.143C0.095,-0.132 0.117,-0.122 0.142,-0.113C0.167,-0.104 0.195,-0.1 0.228,-0.1C0.275,-0.1 0.299,-0.113 0.299,-0.14C0.299,-0.151 0.295,-0.16 0.286,-0.166C0.278,-0.172 0.264,-0.177 0.244,-0.182L0.204,-0.191C0.149,-0.202 0.109,-0.22 0.082,-0.244C0.055,-0.267 0.042,-0.3 0.042,-0.343C0.042,-0.39 0.061,-0.428 0.1,-0.456C0.138,-0.483 0.189,-0.497 0.254,-0.497C0.278,-0.497 0.301,-0.495 0.322,-0.492C0.343,-0.488 0.362,-0.482 0.377,-0.475C0.392,-0.468 0.405,-0.459 0.413,-0.448C0.423,-0.437 0.427,-0.424 0.427,-0.409C0.427,-0.396 0.424,-0.384 0.419,-0.374C0.414,-0.363 0.407,-0.355 0.398,-0.348C0.393,-0.351 0.385,-0.355 0.375,-0.359C0.364,-0.363 0.353,-0.367 0.341,-0.37C0.329,-0.373 0.316,-0.376 0.303,-0.378C0.29,-0.38 0.277,-0.381 0.266,-0.381C0.243,-0.381 0.225,-0.378 0.212,-0.372C0.199,-0.365 0.192,-0.356 0.192,-0.343C0.192,-0.334 0.196,-0.326 0.203,-0.321C0.21,-0.316 0.224,-0.311 0.243,-0.306L0.281,-0.297C0.342,-0.284 0.385,-0.264 0.411,-0.239C0.437,-0.214 0.45,-0.181 0.45,-0.141Z" style="fill-rule:nonzero;"/>
            </g>
            <g transform="matrix(50,0,0,50,343.177,258.258)">
                <path d="M0.213,-0.001C0.206,0.001 0.197,0.003 0.185,0.004C0.173,0.006 0.16,0.007 0.145,0.007C0.115,0.007 0.094,0.002 0.081,-0.008C0.068,-0.017 0.061,-0.036 0.061,-0.064L0.061,-0.475C0.068,-0.477 0.077,-0.479 0.089,-0.481C0.101,-0.483 0.114,-0.484 0.129,-0.484C0.159,-0.484 0.181,-0.479 0.194,-0.469C0.206,-0.459 0.213,-0.44 0.213,-0.412L0.213,-0.001ZM0.052,-0.619C0.052,-0.642 0.06,-0.661 0.076,-0.677C0.091,-0.693 0.112,-0.701 0.137,-0.701C0.162,-0.701 0.183,-0.693 0.199,-0.677C0.214,-0.661 0.222,-0.642 0.222,-0.619C0.222,-0.596 0.214,-0.576 0.199,-0.56C0.183,-0.544 0.162,-0.536 0.137,-0.536C0.112,-0.536 0.091,-0.544 0.076,-0.56C0.06,-0.576 0.052,-0.596 0.052,-0.619Z" style="fill-rule:nonzero;"/>
            </g>
            <g transform="matrix(50,0,0,50,356.877,258.258)">
                <path d="M0.209,-0.159C0.209,-0.14 0.215,-0.127 0.227,-0.118C0.239,-0.11 0.256,-0.106 0.277,-0.106C0.287,-0.106 0.298,-0.107 0.309,-0.11C0.32,-0.112 0.33,-0.115 0.338,-0.118C0.344,-0.111 0.349,-0.104 0.353,-0.095C0.357,-0.086 0.359,-0.076 0.359,-0.065C0.359,-0.042 0.35,-0.023 0.332,-0.008C0.313,0.007 0.281,0.015 0.236,0.015C0.18,0.015 0.136,0.002 0.105,-0.024C0.074,-0.049 0.058,-0.091 0.058,-0.149L0.058,-0.598C0.065,-0.6 0.075,-0.602 0.087,-0.605C0.099,-0.607 0.112,-0.608 0.126,-0.608C0.155,-0.608 0.177,-0.603 0.19,-0.593C0.203,-0.582 0.209,-0.563 0.209,-0.536L0.209,-0.471L0.347,-0.471C0.35,-0.464 0.354,-0.456 0.357,-0.446C0.36,-0.435 0.362,-0.424 0.362,-0.413C0.362,-0.392 0.357,-0.376 0.347,-0.367C0.338,-0.358 0.325,-0.353 0.31,-0.353L0.209,-0.353L0.209,-0.159Z" style="fill-rule:nonzero;"/>
            </g>
            <g transform="matrix(50,0,0,50,376.527,258.258)">
                <path d="M0.136,-0.12C0.121,-0.153 0.103,-0.197 0.084,-0.251C0.064,-0.304 0.043,-0.374 0.022,-0.459C0.03,-0.468 0.041,-0.475 0.056,-0.482C0.07,-0.488 0.085,-0.491 0.102,-0.491C0.123,-0.491 0.141,-0.487 0.154,-0.477C0.167,-0.469 0.178,-0.452 0.185,-0.428C0.2,-0.379 0.215,-0.331 0.23,-0.284C0.245,-0.237 0.26,-0.189 0.275,-0.141L0.279,-0.141C0.287,-0.164 0.295,-0.189 0.304,-0.216C0.313,-0.243 0.321,-0.271 0.329,-0.3C0.337,-0.329 0.344,-0.358 0.352,-0.388C0.359,-0.417 0.365,-0.446 0.37,-0.474C0.391,-0.485 0.412,-0.491 0.435,-0.491C0.456,-0.491 0.475,-0.486 0.49,-0.477C0.505,-0.468 0.513,-0.452 0.513,-0.431C0.513,-0.407 0.509,-0.377 0.5,-0.34C0.492,-0.303 0.481,-0.264 0.468,-0.224C0.454,-0.183 0.439,-0.143 0.422,-0.103C0.405,-0.064 0.387,-0.029 0.369,0.001C0.332,0.064 0.298,0.111 0.268,0.142C0.238,0.173 0.208,0.189 0.177,0.189C0.152,0.189 0.132,0.181 0.116,0.166C0.1,0.151 0.09,0.132 0.087,0.109C0.108,0.09 0.131,0.068 0.154,0.043C0.177,0.018 0.196,-0.007 0.212,-0.032C0.201,-0.035 0.189,-0.043 0.177,-0.055C0.164,-0.066 0.151,-0.088 0.136,-0.12Z" style="fill-rule:nonzero;"/>
            </g>
        </g>
        <g transform="matrix(1,0,0,1,5.78519,-93.4581)">
            <g transform="matrix(23,0,0,23,155.127,249.069)">
                <path d="M0.133,-0C0.12,-0 0.109,-0.004 0.101,-0.012C0.093,-0.02 0.089,-0.031 0.089,-0.044L0.089,-0.564C0.089,-0.577 0.093,-0.588 0.101,-0.596C0.109,-0.604 0.12,-0.608 0.133,-0.608L0.465,-0.608C0.467,-0.605 0.469,-0.6 0.471,-0.595C0.473,-0.589 0.474,-0.583 0.474,-0.576C0.474,-0.565 0.471,-0.556 0.466,-0.549C0.461,-0.542 0.453,-0.539 0.443,-0.539L0.17,-0.539L0.17,-0.346L0.434,-0.346C0.436,-0.343 0.438,-0.338 0.44,-0.333C0.442,-0.327 0.443,-0.321 0.443,-0.314C0.443,-0.303 0.44,-0.294 0.435,-0.288C0.43,-0.281 0.422,-0.278 0.412,-0.278L0.17,-0.278L0.17,-0.068L0.47,-0.068C0.472,-0.065 0.474,-0.06 0.476,-0.055C0.478,-0.05 0.479,-0.043 0.479,-0.036C0.479,-0.025 0.476,-0.016 0.471,-0.01C0.466,-0.003 0.458,-0 0.448,-0L0.133,-0Z" style="fill:rgb(37,37,37);fill-rule:nonzero;"/>
            </g>
            <g transform="matrix(23,0,0,23,167.271,249.069)">
                <path d="M0.661,-0.314C0.661,-0.347 0.652,-0.371 0.633,-0.386C0.614,-0.401 0.589,-0.409 0.558,-0.409C0.515,-0.409 0.476,-0.394 0.442,-0.363C0.446,-0.35 0.448,-0.335 0.448,-0.32L0.448,-0.002C0.445,-0.001 0.44,0.001 0.433,0.002C0.426,0.004 0.418,0.005 0.411,0.005C0.382,0.005 0.368,-0.007 0.368,-0.031L0.368,-0.314C0.368,-0.347 0.359,-0.371 0.34,-0.386C0.321,-0.401 0.296,-0.409 0.264,-0.409C0.243,-0.409 0.223,-0.406 0.203,-0.399C0.185,-0.392 0.168,-0.385 0.155,-0.376L0.155,-0.002C0.152,-0.001 0.147,0.001 0.14,0.002C0.133,0.004 0.126,0.005 0.118,0.005C0.089,0.005 0.075,-0.007 0.075,-0.031L0.075,-0.372C0.075,-0.385 0.078,-0.397 0.084,-0.406C0.089,-0.414 0.099,-0.424 0.113,-0.433C0.131,-0.444 0.154,-0.454 0.182,-0.463C0.209,-0.471 0.237,-0.475 0.265,-0.475C0.298,-0.475 0.327,-0.47 0.352,-0.461C0.377,-0.451 0.397,-0.438 0.41,-0.421C0.427,-0.436 0.449,-0.449 0.475,-0.46C0.501,-0.47 0.531,-0.475 0.564,-0.475C0.618,-0.475 0.661,-0.462 0.693,-0.437C0.725,-0.411 0.741,-0.371 0.741,-0.318L0.741,-0.002C0.738,-0.001 0.733,0.001 0.726,0.002C0.719,0.004 0.711,0.005 0.704,0.005C0.675,0.005 0.661,-0.007 0.661,-0.031L0.661,-0.314Z" style="fill:rgb(37,37,37);fill-rule:nonzero;"/>
            </g>
            <g transform="matrix(23,0,0,23,186.039,249.069)">
                <path d="M0.272,0.013C0.249,0.013 0.227,0.01 0.206,0.005C0.185,-0 0.168,-0.007 0.155,-0.014L0.155,0.18C0.152,0.181 0.147,0.183 0.14,0.184C0.133,0.186 0.126,0.187 0.118,0.187C0.089,0.187 0.075,0.175 0.075,0.15L0.075,-0.378C0.075,-0.391 0.077,-0.402 0.082,-0.41C0.087,-0.418 0.096,-0.426 0.111,-0.435C0.129,-0.445 0.151,-0.454 0.175,-0.463C0.201,-0.471 0.229,-0.475 0.261,-0.475C0.294,-0.475 0.325,-0.47 0.354,-0.461C0.383,-0.452 0.407,-0.437 0.429,-0.418C0.45,-0.398 0.466,-0.373 0.478,-0.342C0.491,-0.311 0.497,-0.275 0.497,-0.232C0.497,-0.191 0.492,-0.155 0.481,-0.124C0.469,-0.093 0.454,-0.068 0.434,-0.048C0.414,-0.027 0.39,-0.012 0.363,-0.002C0.335,0.008 0.305,0.013 0.272,0.013ZM0.261,-0.053C0.308,-0.053 0.345,-0.067 0.374,-0.096C0.402,-0.124 0.416,-0.169 0.416,-0.232C0.416,-0.265 0.412,-0.292 0.404,-0.315C0.395,-0.338 0.384,-0.356 0.37,-0.37C0.355,-0.384 0.339,-0.394 0.32,-0.4C0.301,-0.406 0.282,-0.409 0.261,-0.409C0.237,-0.409 0.217,-0.406 0.2,-0.4C0.183,-0.394 0.168,-0.387 0.155,-0.38L0.155,-0.085C0.168,-0.076 0.183,-0.068 0.2,-0.062C0.217,-0.056 0.238,-0.053 0.261,-0.053Z" style="fill:rgb(37,37,37);fill-rule:nonzero;"/>
            </g>
            <g transform="matrix(23,0,0,23,198.597,249.069)">
                <path d="M0.163,-0.002C0.16,-0.001 0.155,0.001 0.148,0.002C0.141,0.004 0.134,0.005 0.126,0.005C0.097,0.005 0.083,-0.007 0.083,-0.031L0.083,-0.648C0.086,-0.649 0.092,-0.651 0.099,-0.653C0.106,-0.654 0.113,-0.655 0.12,-0.655C0.149,-0.655 0.163,-0.643 0.163,-0.619L0.163,-0.002Z" style="fill:rgb(37,37,37);fill-rule:nonzero;"/>
            </g>
            <g transform="matrix(23,0,0,23,204.255,249.069)">
                <path d="M0.504,-0.231C0.504,-0.194 0.499,-0.16 0.488,-0.13C0.477,-0.1 0.462,-0.074 0.443,-0.053C0.423,-0.032 0.399,-0.015 0.371,-0.004C0.343,0.007 0.312,0.013 0.277,0.013C0.242,0.013 0.211,0.007 0.183,-0.004C0.155,-0.015 0.131,-0.032 0.111,-0.053C0.091,-0.074 0.076,-0.1 0.065,-0.13C0.054,-0.16 0.049,-0.194 0.049,-0.231C0.049,-0.268 0.055,-0.302 0.066,-0.332C0.077,-0.362 0.092,-0.388 0.112,-0.409C0.132,-0.43 0.156,-0.447 0.184,-0.458C0.212,-0.469 0.243,-0.475 0.277,-0.475C0.311,-0.475 0.342,-0.469 0.37,-0.458C0.398,-0.447 0.422,-0.43 0.442,-0.409C0.461,-0.388 0.476,-0.362 0.488,-0.332C0.499,-0.302 0.504,-0.268 0.504,-0.231ZM0.277,-0.409C0.232,-0.409 0.196,-0.393 0.17,-0.362C0.144,-0.331 0.131,-0.287 0.131,-0.231C0.131,-0.174 0.144,-0.131 0.17,-0.1C0.195,-0.069 0.231,-0.053 0.277,-0.053C0.323,-0.053 0.359,-0.069 0.384,-0.1C0.409,-0.131 0.422,-0.175 0.422,-0.231C0.422,-0.287 0.409,-0.331 0.384,-0.362C0.358,-0.393 0.322,-0.409 0.277,-0.409Z" style="fill:rgb(37,37,37);fill-rule:nonzero;"/>
            </g>
            <g transform="matrix(23,0,0,23,216.675,249.069)">
                <path d="M0.169,-0.103C0.16,-0.119 0.15,-0.139 0.139,-0.164C0.128,-0.189 0.116,-0.216 0.103,-0.247C0.091,-0.278 0.079,-0.31 0.066,-0.344C0.053,-0.379 0.041,-0.414 0.03,-0.449C0.035,-0.456 0.041,-0.461 0.049,-0.465C0.056,-0.469 0.064,-0.471 0.073,-0.471C0.084,-0.471 0.094,-0.468 0.101,-0.462C0.108,-0.456 0.114,-0.446 0.119,-0.432C0.139,-0.375 0.16,-0.32 0.182,-0.265C0.203,-0.21 0.228,-0.153 0.255,-0.093L0.259,-0.093C0.27,-0.114 0.281,-0.139 0.292,-0.169C0.303,-0.198 0.315,-0.23 0.326,-0.263C0.337,-0.296 0.347,-0.33 0.357,-0.365C0.366,-0.399 0.375,-0.432 0.382,-0.463C0.387,-0.465 0.392,-0.467 0.397,-0.469C0.402,-0.47 0.409,-0.471 0.416,-0.471C0.427,-0.471 0.437,-0.468 0.444,-0.463C0.451,-0.457 0.455,-0.448 0.455,-0.437C0.455,-0.424 0.45,-0.399 0.441,-0.364C0.432,-0.329 0.42,-0.289 0.405,-0.245C0.39,-0.201 0.372,-0.156 0.353,-0.11C0.334,-0.063 0.314,-0.022 0.294,0.014C0.263,0.071 0.234,0.114 0.21,0.144C0.185,0.175 0.161,0.19 0.14,0.19C0.125,0.19 0.113,0.186 0.105,0.178C0.096,0.17 0.091,0.161 0.089,0.15C0.1,0.141 0.112,0.129 0.125,0.114C0.138,0.099 0.152,0.083 0.165,0.066C0.178,0.049 0.191,0.032 0.203,0.014C0.215,-0.004 0.225,-0.021 0.233,-0.038C0.222,-0.041 0.211,-0.047 0.202,-0.056C0.192,-0.064 0.181,-0.08 0.169,-0.103Z" style="fill:rgb(37,37,37);fill-rule:nonzero;"/>
            </g>
            <g transform="matrix(23,0,0,23,227.738,249.069)">
                <path d="M0.132,-0.184C0.15,-0.097 0.207,-0.053 0.304,-0.053C0.332,-0.053 0.357,-0.058 0.38,-0.067C0.403,-0.076 0.421,-0.086 0.434,-0.097C0.45,-0.088 0.458,-0.075 0.458,-0.059C0.458,-0.05 0.454,-0.041 0.446,-0.032C0.437,-0.023 0.426,-0.016 0.411,-0.009C0.397,-0.002 0.381,0.003 0.362,0.007C0.343,0.011 0.322,0.013 0.3,0.013C0.223,0.013 0.162,-0.008 0.117,-0.05C0.071,-0.092 0.049,-0.153 0.049,-0.234C0.049,-0.272 0.055,-0.306 0.066,-0.336C0.077,-0.365 0.092,-0.39 0.112,-0.411C0.131,-0.432 0.155,-0.448 0.182,-0.459C0.209,-0.469 0.239,-0.475 0.271,-0.475C0.301,-0.475 0.329,-0.47 0.354,-0.46C0.379,-0.45 0.401,-0.436 0.42,-0.418C0.438,-0.399 0.452,-0.378 0.463,-0.353C0.473,-0.328 0.478,-0.3 0.478,-0.27C0.478,-0.255 0.475,-0.245 0.468,-0.238C0.461,-0.232 0.452,-0.228 0.44,-0.227L0.132,-0.184ZM0.27,-0.41C0.229,-0.41 0.196,-0.396 0.169,-0.368C0.142,-0.339 0.128,-0.299 0.127,-0.246L0.402,-0.284C0.399,-0.321 0.386,-0.351 0.364,-0.375C0.341,-0.398 0.31,-0.41 0.27,-0.41Z" style="fill:rgb(37,37,37);fill-rule:nonzero;"/>
            </g>
            <g transform="matrix(23,0,0,23,239.675,249.069)">
                <path d="M0.132,-0.184C0.15,-0.097 0.207,-0.053 0.304,-0.053C0.332,-0.053 0.357,-0.058 0.38,-0.067C0.403,-0.076 0.421,-0.086 0.434,-0.097C0.45,-0.088 0.458,-0.075 0.458,-0.059C0.458,-0.05 0.454,-0.041 0.446,-0.032C0.437,-0.023 0.426,-0.016 0.411,-0.009C0.397,-0.002 0.381,0.003 0.362,0.007C0.343,0.011 0.322,0.013 0.3,0.013C0.223,0.013 0.162,-0.008 0.117,-0.05C0.071,-0.092 0.049,-0.153 0.049,-0.234C0.049,-0.272 0.055,-0.306 0.066,-0.336C0.077,-0.365 0.092,-0.39 0.112,-0.411C0.131,-0.432 0.155,-0.448 0.182,-0.459C0.209,-0.469 0.239,-0.475 0.271,-0.475C0.301,-0.475 0.329,-0.47 0.354,-0.46C0.379,-0.45 0.401,-0.436 0.42,-0.418C0.438,-0.399 0.452,-0.378 0.463,-0.353C0.473,-0.328 0.478,-0.3 0.478,-0.27C0.478,-0.255 0.475,-0.245 0.468,-0.238C0.461,-0.232 0.452,-0.228 0.44,-0.227L0.132,-0.184ZM0.27,-0.41C0.229,-0.41 0.196,-0.396 0.169,-0.368C0.142,-0.339 0.128,-0.299 0.127,-0.246L0.402,-0.284C0.399,-0.321 0.386,-0.351 0.364,-0.375C0.341,-0.398 0.31,-0.41 0.27,-0.41Z" style="fill:rgb(37,37,37);fill-rule:nonzero;"/>
            </g>
            <g transform="matrix(23,0,0,23,256.212,249.069)">
                <path d="M0.302,-0.539L0.302,-0.002C0.299,-0.001 0.294,0.001 0.286,0.002C0.28,0.004 0.272,0.005 0.265,0.005C0.236,0.005 0.221,-0.007 0.221,-0.032L0.221,-0.539L0.034,-0.539C0.032,-0.542 0.03,-0.547 0.028,-0.553C0.026,-0.558 0.025,-0.565 0.025,-0.572C0.025,-0.583 0.028,-0.592 0.033,-0.599C0.038,-0.605 0.046,-0.608 0.056,-0.608L0.489,-0.608C0.491,-0.605 0.493,-0.6 0.495,-0.595C0.497,-0.589 0.498,-0.583 0.498,-0.576C0.498,-0.565 0.495,-0.556 0.49,-0.549C0.485,-0.542 0.477,-0.539 0.467,-0.539L0.302,-0.539Z" style="fill:rgb(37,37,37);fill-rule:nonzero;"/>
            </g>
            <g transform="matrix(23,0,0,23,268.126,249.069)">
                <path d="M0.16,-0.002C0.157,-0.001 0.152,0.001 0.145,0.002C0.138,0.004 0.131,0.005 0.123,0.005C0.094,0.005 0.08,-0.007 0.08,-0.031L0.08,-0.46C0.083,-0.461 0.089,-0.463 0.096,-0.465C0.102,-0.466 0.11,-0.467 0.118,-0.467C0.146,-0.467 0.16,-0.455 0.16,-0.43L0.16,-0.002ZM0.068,-0.608C0.068,-0.622 0.073,-0.634 0.083,-0.644C0.092,-0.653 0.105,-0.658 0.12,-0.658C0.135,-0.658 0.148,-0.653 0.157,-0.644C0.166,-0.634 0.171,-0.622 0.171,-0.608C0.171,-0.594 0.166,-0.582 0.157,-0.573C0.148,-0.563 0.135,-0.558 0.12,-0.558C0.105,-0.558 0.092,-0.563 0.083,-0.573C0.073,-0.582 0.068,-0.594 0.068,-0.608Z" style="fill:rgb(37,37,37);fill-rule:nonzero;"/>
            </g>
            <g transform="matrix(23,0,0,23,273.669,249.069)">
                <path d="M0.661,-0.314C0.661,-0.347 0.652,-0.371 0.633,-0.386C0.614,-0.401 0.589,-0.409 0.558,-0.409C0.515,-0.409 0.476,-0.394 0.442,-0.363C0.446,-0.35 0.448,-0.335 0.448,-0.32L0.448,-0.002C0.445,-0.001 0.44,0.001 0.433,0.002C0.426,0.004 0.418,0.005 0.411,0.005C0.382,0.005 0.368,-0.007 0.368,-0.031L0.368,-0.314C0.368,-0.347 0.359,-0.371 0.34,-0.386C0.321,-0.401 0.296,-0.409 0.264,-0.409C0.243,-0.409 0.223,-0.406 0.203,-0.399C0.185,-0.392 0.168,-0.385 0.155,-0.376L0.155,-0.002C0.152,-0.001 0.147,0.001 0.14,0.002C0.133,0.004 0.126,0.005 0.118,0.005C0.089,0.005 0.075,-0.007 0.075,-0.031L0.075,-0.372C0.075,-0.385 0.078,-0.397 0.084,-0.406C0.089,-0.414 0.099,-0.424 0.113,-0.433C0.131,-0.444 0.154,-0.454 0.182,-0.463C0.209,-0.471 0.237,-0.475 0.265,-0.475C0.298,-0.475 0.327,-0.47 0.352,-0.461C0.377,-0.451 0.397,-0.438 0.41,-0.421C0.427,-0.436 0.449,-0.449 0.475,-0.46C0.501,-0.47 0.531,-0.475 0.564,-0.475C0.618,-0.475 0.661,-0.462 0.693,-0.437C0.725,-0.411 0.741,-0.371 0.741,-0.318L0.741,-0.002C0.738,-0.001 0.733,0.001 0.726,0.002C0.719,0.004 0.711,0.005 0.704,0.005C0.675,0.005 0.661,-0.007 0.661,-0.031L0.661,-0.314Z" style="fill:rgb(37,37,37);fill-rule:nonzero;"/>
            </g>
            <g transform="matrix(23,0,0,23,292.437,249.069)">
                <path d="M0.132,-0.184C0.15,-0.097 0.207,-0.053 0.304,-0.053C0.332,-0.053 0.357,-0.058 0.38,-0.067C0.403,-0.076 0.421,-0.086 0.434,-0.097C0.45,-0.088 0.458,-0.075 0.458,-0.059C0.458,-0.05 0.454,-0.041 0.446,-0.032C0.437,-0.023 0.426,-0.016 0.411,-0.009C0.397,-0.002 0.381,0.003 0.362,0.007C0.343,0.011 0.322,0.013 0.3,0.013C0.223,0.013 0.162,-0.008 0.117,-0.05C0.071,-0.092 0.049,-0.153 0.049,-0.234C0.049,-0.272 0.055,-0.306 0.066,-0.336C0.077,-0.365 0.092,-0.39 0.112,-0.411C0.131,-0.432 0.155,-0.448 0.182,-0.459C0.209,-0.469 0.239,-0.475 0.271,-0.475C0.301,-0.475 0.329,-0.47 0.354,-0.46C0.379,-0.45 0.401,-0.436 0.42,-0.418C0.438,-0.399 0.452,-0.378 0.463,-0.353C0.473,-0.328 0.478,-0.3 0.478,-0.27C0.478,-0.255 0.475,-0.245 0.468,-0.238C0.461,-0.232 0.452,-0.228 0.44,-0.227L0.132,-0.184ZM0.27,-0.41C0.229,-0.41 0.196,-0.396 0.169,-0.368C0.142,-0.339 0.128,-0.299 0.127,-0.246L0.402,-0.284C0.399,-0.321 0.386,-0.351 0.364,-0.375C0.341,-0.398 0.31,-0.41 0.27,-0.41Z" style="fill:rgb(37,37,37);fill-rule:nonzero;"/>
            </g>
            <g transform="matrix(23,0,0,23,308.974,249.069)">
                <path d="M0.171,-0.217L0.171,-0.002C0.167,-0.001 0.162,0.001 0.155,0.002C0.148,0.004 0.141,0.005 0.133,0.005C0.104,0.005 0.089,-0.007 0.089,-0.032L0.089,-0.564C0.089,-0.575 0.092,-0.583 0.097,-0.589C0.102,-0.594 0.111,-0.599 0.122,-0.602C0.141,-0.608 0.165,-0.612 0.193,-0.615C0.22,-0.618 0.247,-0.619 0.273,-0.619C0.358,-0.619 0.42,-0.601 0.459,-0.566C0.498,-0.53 0.517,-0.482 0.517,-0.421C0.517,-0.359 0.497,-0.31 0.457,-0.273C0.417,-0.235 0.355,-0.217 0.272,-0.217L0.171,-0.217ZM0.267,-0.285C0.32,-0.285 0.362,-0.296 0.391,-0.318C0.42,-0.34 0.435,-0.374 0.435,-0.42C0.435,-0.465 0.421,-0.499 0.393,-0.52C0.364,-0.541 0.324,-0.551 0.271,-0.551C0.253,-0.551 0.235,-0.55 0.218,-0.549C0.2,-0.547 0.184,-0.545 0.17,-0.542L0.17,-0.285L0.267,-0.285Z" style="fill:rgb(37,37,37);fill-rule:nonzero;"/>
            </g>
            <g transform="matrix(23,0,0,23,322.015,249.069)">
                <path d="M0.163,-0.002C0.16,-0.001 0.155,0.001 0.148,0.002C0.141,0.004 0.134,0.005 0.126,0.005C0.097,0.005 0.083,-0.007 0.083,-0.031L0.083,-0.648C0.086,-0.649 0.092,-0.651 0.099,-0.653C0.106,-0.654 0.113,-0.655 0.12,-0.655C0.149,-0.655 0.163,-0.643 0.163,-0.619L0.163,-0.002Z" style="fill:rgb(37,37,37);fill-rule:nonzero;"/>
            </g>
            <g transform="matrix(23,0,0,23,327.673,249.069)">
                <path d="M0.24,-0.052C0.268,-0.052 0.291,-0.055 0.31,-0.061C0.328,-0.066 0.341,-0.072 0.349,-0.077L0.349,-0.222L0.225,-0.209C0.19,-0.206 0.165,-0.198 0.148,-0.186C0.131,-0.173 0.123,-0.155 0.123,-0.131C0.123,-0.106 0.133,-0.086 0.152,-0.073C0.171,-0.059 0.201,-0.052 0.24,-0.052ZM0.239,-0.475C0.297,-0.475 0.343,-0.462 0.377,-0.436C0.411,-0.41 0.428,-0.369 0.428,-0.313L0.428,-0.076C0.428,-0.061 0.425,-0.05 0.42,-0.043C0.414,-0.035 0.405,-0.028 0.394,-0.021C0.378,-0.012 0.357,-0.004 0.331,0.003C0.304,0.01 0.274,0.014 0.24,0.014C0.177,0.014 0.129,0.002 0.095,-0.023C0.06,-0.048 0.043,-0.083 0.043,-0.13C0.043,-0.174 0.057,-0.207 0.086,-0.23C0.115,-0.252 0.155,-0.266 0.207,-0.271L0.349,-0.285L0.349,-0.313C0.349,-0.346 0.339,-0.371 0.319,-0.386C0.299,-0.401 0.272,-0.409 0.238,-0.409C0.21,-0.409 0.184,-0.405 0.159,-0.397C0.134,-0.389 0.112,-0.38 0.093,-0.37C0.088,-0.375 0.083,-0.38 0.079,-0.386C0.074,-0.392 0.072,-0.399 0.072,-0.406C0.072,-0.415 0.074,-0.423 0.079,-0.429C0.084,-0.435 0.091,-0.441 0.101,-0.446C0.119,-0.455 0.14,-0.463 0.163,-0.468C0.186,-0.472 0.212,-0.475 0.239,-0.475Z" style="fill:rgb(37,37,37);fill-rule:nonzero;"/>
            </g>
            <g transform="matrix(23,0,0,23,339.15,249.069)">
                <path d="M0.395,-0.301C0.395,-0.338 0.385,-0.366 0.364,-0.383C0.343,-0.4 0.314,-0.409 0.279,-0.409C0.252,-0.409 0.229,-0.406 0.208,-0.399C0.187,-0.392 0.17,-0.385 0.155,-0.376L0.155,-0.002C0.152,-0.001 0.147,0.001 0.14,0.002C0.133,0.004 0.126,0.005 0.118,0.005C0.089,0.005 0.075,-0.007 0.075,-0.031L0.075,-0.372C0.075,-0.386 0.078,-0.398 0.084,-0.406C0.089,-0.416 0.099,-0.424 0.113,-0.433C0.13,-0.444 0.153,-0.453 0.182,-0.462C0.211,-0.471 0.243,-0.475 0.279,-0.475C0.34,-0.475 0.388,-0.461 0.423,-0.434C0.458,-0.407 0.475,-0.364 0.475,-0.305L0.475,-0.002C0.472,-0.001 0.467,0.001 0.46,0.002C0.453,0.004 0.445,0.005 0.438,0.005C0.409,0.005 0.395,-0.007 0.395,-0.031L0.395,-0.301Z" style="fill:rgb(37,37,37);fill-rule:nonzero;"/>
            </g>
            <g transform="matrix(23,0,0,23,351.8,249.069)">
                <path d="M0.395,-0.301C0.395,-0.338 0.385,-0.366 0.364,-0.383C0.343,-0.4 0.314,-0.409 0.279,-0.409C0.252,-0.409 0.229,-0.406 0.208,-0.399C0.187,-0.392 0.17,-0.385 0.155,-0.376L0.155,-0.002C0.152,-0.001 0.147,0.001 0.14,0.002C0.133,0.004 0.126,0.005 0.118,0.005C0.089,0.005 0.075,-0.007 0.075,-0.031L0.075,-0.372C0.075,-0.386 0.078,-0.398 0.084,-0.406C0.089,-0.416 0.099,-0.424 0.113,-0.433C0.13,-0.444 0.153,-0.453 0.182,-0.462C0.211,-0.471 0.243,-0.475 0.279,-0.475C0.34,-0.475 0.388,-0.461 0.423,-0.434C0.458,-0.407 0.475,-0.364 0.475,-0.305L0.475,-0.002C0.472,-0.001 0.467,0.001 0.46,0.002C0.453,0.004 0.445,0.005 0.438,0.005C0.409,0.005 0.395,-0.007 0.395,-0.031L0.395,-0.301Z" style="fill:rgb(37,37,37);fill-rule:nonzero;"/>
            </g>
            <g transform="matrix(23,0,0,23,364.45,249.069)">
                <path d="M0.132,-0.184C0.15,-0.097 0.207,-0.053 0.304,-0.053C0.332,-0.053 0.357,-0.058 0.38,-0.067C0.403,-0.076 0.421,-0.086 0.434,-0.097C0.45,-0.088 0.458,-0.075 0.458,-0.059C0.458,-0.05 0.454,-0.041 0.446,-0.032C0.437,-0.023 0.426,-0.016 0.411,-0.009C0.397,-0.002 0.381,0.003 0.362,0.007C0.343,0.011 0.322,0.013 0.3,0.013C0.223,0.013 0.162,-0.008 0.117,-0.05C0.071,-0.092 0.049,-0.153 0.049,-0.234C0.049,-0.272 0.055,-0.306 0.066,-0.336C0.077,-0.365 0.092,-0.39 0.112,-0.411C0.131,-0.432 0.155,-0.448 0.182,-0.459C0.209,-0.469 0.239,-0.475 0.271,-0.475C0.301,-0.475 0.329,-0.47 0.354,-0.46C0.379,-0.45 0.401,-0.436 0.42,-0.418C0.438,-0.399 0.452,-0.378 0.463,-0.353C0.473,-0.328 0.478,-0.3 0.478,-0.27C0.478,-0.255 0.475,-0.245 0.468,-0.238C0.461,-0.232 0.452,-0.228 0.44,-0.227L0.132,-0.184ZM0.27,-0.41C0.229,-0.41 0.196,-0.396 0.169,-0.368C0.142,-0.339 0.128,-0.299 0.127,-0.246L0.402,-0.284C0.399,-0.321 0.386,-0.351 0.364,-0.375C0.341,-0.398 0.31,-0.41 0.27,-0.41Z" style="fill:rgb(37,37,37);fill-rule:nonzero;"/>
            </g>
            <g transform="matrix(23,0,0,23,376.387,249.069)">
                <path d="M0.155,-0.002C0.152,-0.001 0.147,0.001 0.14,0.002C0.133,0.004 0.126,0.005 0.118,0.005C0.089,0.005 0.075,-0.007 0.075,-0.031L0.075,-0.37C0.075,-0.385 0.078,-0.398 0.084,-0.406C0.089,-0.416 0.099,-0.424 0.112,-0.433C0.129,-0.444 0.153,-0.454 0.183,-0.463C0.212,-0.471 0.246,-0.475 0.283,-0.475C0.336,-0.475 0.363,-0.462 0.363,-0.435C0.363,-0.428 0.362,-0.422 0.36,-0.417C0.358,-0.411 0.355,-0.406 0.352,-0.402C0.345,-0.403 0.337,-0.405 0.326,-0.406C0.315,-0.407 0.305,-0.408 0.294,-0.408C0.263,-0.408 0.236,-0.405 0.213,-0.399C0.19,-0.392 0.17,-0.385 0.155,-0.376L0.155,-0.002Z" style="fill:rgb(37,37,37);fill-rule:nonzero;"/>
            </g>
        </g>
        <g transform="matrix(1,0,0,1,-1.43023,-128.818)">
            <path d="M134.111,246.041C135.09,249.189 135.618,252.534 135.618,256C135.618,274.507 120.592,289.533 102.085,289.533C83.578,289.533 68.552,274.507 68.552,256C68.552,237.493 83.578,222.467 102.085,222.467C105.551,222.467 108.896,222.995 112.044,223.974L109.598,226.419C107.194,225.809 104.677,225.485 102.085,225.485C85.244,225.485 71.57,239.159 71.57,256C71.57,272.841 85.244,286.515 102.085,286.515C118.926,286.515 132.6,272.841 132.6,256C132.6,253.408 132.276,250.891 131.666,248.487L134.111,246.041Z" style="fill:url(#_Linear1);"/>
        </g>
        <g id="Hourglass-empty__Shape" transform="matrix(1,0,0,1,-1.43023,-128.818)">
            <path d="M124.256,250.457L107.628,233.829L99.314,242.143L99.327,242.157L99.3,242.157L99.314,253.229L88.228,253.229L88.228,253.256L88.214,253.242L79.914,261.543L96.542,278.171L104.843,269.871L104.829,269.857L104.856,269.857L104.856,258.771L115.928,258.785L115.928,258.758L115.942,258.771L124.256,250.457ZM101.392,266.58L90.307,266.58L85.457,261.543L90.307,256.693L101.392,256.693L101.392,266.58ZM102.778,250.457L102.778,244.221L107.628,239.372L118.713,250.457L102.778,250.457ZM131.893,234.832L129.887,232.826L121.258,241.454L123.264,243.46L131.893,234.832ZM128.925,222.467L126.918,220.461L113.592,233.788L115.598,235.794L128.925,222.467Z" style="fill:url(#_Linear2);fill-rule:nonzero;"/>
        </g>
    </g>
    <defs>
        <linearGradient id="_Linear1" x1="0" y1="0" x2="1" y2="0" gradientUnits="userSpaceOnUse" gradientTransform="matrix(4.80814e-14,-67.065,9193.82,4.80814e-14,68.5525,289.533)"><stop offset="0" style="stop-color:rgb(236,0,140);stop-opacity:1"/><stop offset="1" style="stop-color:rgb(252,103,103);stop-opacity:1"/></linearGradient>
        <linearGradient id="_Linear2" x1="0" y1="0" x2="1" y2="0" gradientUnits="userSpaceOnUse" gradientTransform="matrix(3.72658e-14,-57.71,7125.72,4.13744e-14,79.9137,278.171)"><stop offset="0" style="stop-color:rgb(236,0,140);stop-opacity:1"/><stop offset="1" style="stop-color:rgb(252,103,103);stop-opacity:1"/></linearGradient>
    </defs>
</svg>
